# xmcd
#
# Track frame offsets: 
#        150
#        21780
#        38115
#        59993
#        79289
#        97295
#        112377
#        137546
#        158422
#        185354
#        204744
#        238201
#        255859
#        277406
#        296896
#        321591
#        337226
#
# Disc length: 4776 seconds
#
# Revision: 3
# Processed by: cddbd v1.5.2PL0 Copyright (c) Steve Scherf et al.
# Submitted via: ExactAudioCopy v1.3
#
DISCID=1a12a611
DTITLE=Various Artist - Akella Presents - vol. 02 - Various Styles Of
DTITLE=Blues  CD1
DYEAR=2013
DGENRE=Blues
TTITLE0=Vargas Blues Band - Del Sur
TTITLE1=Colin James - Standing On The Edge
TTITLE2=Charlie Musselwhite - No
TTITLE3=Peter Green - Feeling Good
TTITLE4=Tino Gonzales - Tequila Nights
TTITLE5=Reverend Rusty - Born For The Blues
TTITLE6=John Campbell - One Believer
TTITLE7=Steve Pryor Band - Movin' Me
TTITLE8=Julian Sas - Is This What They Call The Blues
TTITLE9=Rare Earth - Keepin' Me Out Of The Storm
TTITLE10=Alvin Lee - The Bluest Blues
TTITLE11=Vargas Blues Band - Coward's Knife
TTITLE12=Big House - Amarillo
TTITLE13=Dave Hole - More Love  Less Attitude
TTITLE14=Chris Rea - And You My Love
TTITLE15=Little Feat - Rad Gumbo
TTITLE16=The Beat Daddys - Luna Blue
EXTD=
EXTT0=
EXTT1=
EXTT2=
EXTT3=
EXTT4=
EXTT5=
EXTT6=
EXTT7=
EXTT8=
EXTT9=
EXTT10=
EXTT11=
EXTT12=
EXTT13=
EXTT14=
EXTT15=
EXTT16=
PLAYORDER=
